PathFileType	4	(X/Y/Z)	49_2_rein_87_p1_0-201_filt_butterworth.trc
DataRate	CameraRate	NumFrames	NumMarkers	Units	OrigDataRate	OrigDataStartFrame	OrigNumFrames
60.0	60.0	6	27	m	60.0	125	201
Frame#	Time	RHip			RKnee			RAnkle			RBigToe			RSmallToe			RHeel			LHip			LKnee			LAnkle			LBigToe			LSmallToe			LHeel			Neck			Head			Nose			RShoulder			RElbow			RWrist			RThumb			RIndex			RPinky			LShoulder			LElbow			LWrist			LThumb			LIndex			LPinky			
		X1	Y1	Z1	X2	Y2	Z2	X3	Y3	Z3	X4	Y4	Z4	X5	Y5	Z5	X6	Y6	Z6	X7	Y7	Z7	X8	Y8	Z8	X9	Y9	Z9	X10	Y10	Z10	X11	Y11	Z11	X12	Y12	Z12	X13	Y13	Z13	X14	Y14	Z14	X15	Y15	Z15	X16	Y16	Z16	X17	Y17	Z17	X18	Y18	Z18	X19	Y19	Z19	X20	Y20	Z20	X21	Y21	Z21	X22	Y22	Z22	X23	Y23	Z23	X24	Y24	Z24	X25	Y25	Z25	X26	Y26	Z26	X27	Y27	Z27	
125	2.083333333333333	0.38566549064197264	0.576602235665207	0.7325970814581375	0.3460283831912865	0.7953115722508372	1.1770443673413196	0.33779566268135286	1.0221693922592174	1.5935554891506065	0.30874973380806064	0.8502725750846541	1.6753078161224229	0.37126185424273533	0.8441900949252222	1.667699972251521	0.3245844501817278	1.1511394294939468	1.6399685245168998	0.18031911921488633	0.5940026581908384	0.7302100039251673	0.18064658798199584	0.7992535018260645	1.1826674455453214	0.1839010311426208	1.0363477890453208	1.5787195624111865	0.15134542956867372	0.8180185779724171	1.6488023328367407	0.11317658090905937	0.8789865634979978	1.6490177626931717	0.2011084668620542	1.1654155136957394	1.6466552545973834	0.2888185653563211	0.43498650125577887	0.23138346543855987	0.3084260575944966	0.30546942751478023	0.026065568484433498	0.28794679980155585	0.36082464039390116	0.13986730706716055	0.44130763935992734	0.4607067631637744	0.2794990927788475	0.4923648760361787	0.21746192477340037	0.3576751259913608	0.3616761188552809	0.034261522113085544	0.232891573065643	0.31417964800736636	0.06981924882499185	0.09974685599260713	0.31395700258994924	0.06246760372770467	0.08869471685860703	0.3320487071951476	-0.009220813701003408	0.12991245481046165	0.15117979033700046	0.47301067251158063	0.2728794305106931	0.024707194575556493	0.27471599683814973	0.3541241607541279	0.11990616196229321	0.10914799158615637	0.23858597357213504	0.20384768842822862	0.08563491783126034	0.16083435898947995	0.1866599442732498	0.10168542253399426	0.12144007050113816	0.12927975757346022	0.06376763520320008	0.12559539596283725
126	2.1	0.38573391487892367	0.5767877260111895	0.73266662046549	0.3457852436755894	0.7958559139819592	1.1774251224399777	0.33627272399730207	1.020872228067174	1.5933247284604406	0.30862354103565837	0.8500969173755135	1.6753486314298862	0.3712144178692912	0.8441372776887056	1.6676966524068777	0.3245663886088991	1.1509981339715563	1.6399585347483179	0.18141637641100772	0.5942637150147602	0.730026675544428	0.18063354057706904	0.7992536102898518	1.1827818169437774	0.1829069384677535	1.0328203125770525	1.5783368069004955	0.15124620593035507	0.8178908793968946	1.6488300868694	0.11275386886817318	0.8789810212751924	1.6489237559487826	0.2011158021436899	1.1655828744015018	1.6461938965909675	0.28956955254222283	0.43408044160351644	0.2302854217487244	0.31231415717124844	0.31910877055472064	0.024357617830236367	0.2943433315552877	0.3442985166002728	0.14622320883329745	0.44163507498676047	0.4636940516419079	0.27812042081785626	0.4865585954838521	0.21615947328174345	0.345177392619816	0.3597286330406708	0.02659794527900839	0.21531278667929754	0.3116828364002898	0.06194119900542776	0.07862154568489677	0.31945443099451887	0.04375237855073596	0.07173826781444513	0.33986499743762016	-0.013116437622167246	0.10447592771184847	0.14874811412765163	0.47638527150096965	0.2737245143328948	0.03323393753496314	0.2704916234112928	0.34493191561537145	0.1209276480107869	0.10246509706128547	0.2239610076059248	0.20336735297997105	0.07209928455758542	0.14409219425372977	0.18380815144304072	0.07840176078228572	0.10683206675051322	0.12956963595855403	0.049845379521666955	0.10704384369138881
127	2.1166666666666667	0.38573444301002824	0.5766863520638993	0.7327666165474181	0.3459154603372838	0.7966089644638228	1.1777624684077483	0.33530745993472894	1.024264549714164	1.5939485166739602	0.30800309043549084	0.850025624863052	1.6754666868728079	0.3711512514535174	0.8441050682929792	1.667733524183539	0.3245617746687413	1.1509496177623701	1.640071293666886	0.18186626314263876	0.5942822786272477	0.7298928310924027	0.18061405330961686	0.7992002158387865	1.1828567407338233	0.18220985365093104	1.0304899305283504	1.5771356197138704	0.15115074993289282	0.8176040624611194	1.6488263838703863	0.11176771011584553	0.8805139552322959	1.648810026485956	0.20100841407359016	1.1653211537396613	1.6452614863774562	0.2905076382173724	0.43108987514262925	0.23021793791607753	0.3143523041133261	0.34039846275271707	0.023591694821652062	0.2996504010672173	0.3248525013766501	0.15379365933536937	0.44238320055935215	0.46528149409819564	0.27810243653235506	0.4787946706227526	0.21632353751769098	0.3353942133886917	0.3571553415056764	0.020082698484130548	0.19692758818720874	0.30752604099394254	0.052689800042090076	0.060358114829537485	0.3263937142694757	0.019303459276365426	0.05711338737341607	0.3490102427679996	-0.025088416696198695	0.08191074130139726	0.14953816153394434	0.4747511476056897	0.2756085492962117	0.04287159685407438	0.2642909746029193	0.3369675661743147	0.1231020927966464	0.0951024515764831	0.20809122515010953	0.20032466412310107	0.05394077238713177	0.12993366218111896	0.17888577671232705	0.048855996352878774	0.09249231928891134	0.1290402516137656	0.028395097238308947	0.09261576267799436
128	2.1333333333333333	0.38571385734009017	0.5764103835458144	0.7328732492392254	0.34617147894613476	0.7966111024339184	1.1779497810106498	0.3351817752377251	1.031883806098341	1.595353756627055	0.30669619151296745	0.8495828780436816	1.6754826743668763	0.37110596376003446	0.8441007757273079	1.6678118417986565	0.32456994597638167	1.151002537514356	1.640369168099976	0.18188843291994122	0.5941808577919176	0.7298489236527561	0.1805911313501288	0.7991560109681541	1.1829108997986404	0.18183235838600903	1.0288584573691422	1.5759095407078803	0.15125517039389047	0.8175297924370446	1.6488046362136688	0.11049609655260273	0.8845483122146465	1.6487286261444412	0.20097585228446452	1.1648802237578177	1.64448284857977	0.291178933440279	0.4288979658519925	0.23105471464278116	0.31397854776365636	0.3616723409304748	0.02281965178631877	0.30205741209269815	0.3133261520420896	0.15817653858873268	0.44186830366358243	0.46486886272224187	0.2786599727198975	0.4698855664425668	0.2156167793260063	0.3262350195314785	0.3547014573600509	0.014684480765784495	0.17831642984905427	0.3035914498320929	0.03755957640812028	0.049359321981003956	0.3333608000709449	-0.004545062109469537	0.045069309708452424	0.3587166486341765	-0.04452733569527389	0.06531530029074753	0.15277490642477412	0.46798196139795156	0.2786858251168465	0.05159157985269743	0.2541571957542256	0.32909969448566323	0.1257993437653867	0.08630249133813232	0.19009166731590166	0.19622505084366068	0.032465257862415574	0.11815987749982668	0.17268153206159567	0.018961695164627174	0.08046058379658287	0.12589375059191082	-0.0011572514949584802	0.0848785194837213
129	2.15	0.38570906381254605	0.5761203216105129	0.7329814250459438	0.34623910301516087	0.795661162432099	1.177622926196551	0.33545979739729453	1.0401234527780636	1.5968825744349755	0.3051086783155078	0.8476861141164527	1.6750948942447337	0.3711244129602457	0.8441208074539169	1.6678902702808178	0.32457899726103007	1.1510725952176466	1.6406995721615312	0.18181011141594372	0.5940405938508514	0.7298698886739474	0.1805966353723177	0.7991367614408342	1.1829680216595806	0.18169624561556982	1.0277531490922982	1.5753899300647625	0.15187032788223928	0.8186506918634755	1.6487202172773185	0.10955627723218837	0.8898998229944448	1.6486898916601833	0.20091917017917305	1.1642123527326829	1.6441724484911084	0.2914747137526207	0.42870964666372996	0.23296001368182798	0.31284629670073694	0.37640916900059557	0.020858922138064548	0.3018555168012191	0.31173849460404895	0.1585975561348551	0.4392909713036084	0.46205468220689283	0.27960482544034837	0.46146257839351246	0.21148067663124062	0.31615325132484484	0.3537876755502592	0.010746301400803586	0.16146115159849578	0.300730245662545	0.012328164227942723	0.048883480305739455	0.3381955971789576	-0.025660788467263287	0.03565395826600223	0.36796673192933177	-0.06581363829323741	0.05410568402133109	0.15700294111375848	0.4587129420325768	0.28195978048528236	0.0572846246394215	0.24259375060575353	0.31900516389378186	0.12761352205065465	0.07739174501715995	0.17206634954617644	0.19243984511970233	0.011373603491912335	0.10812514038178068	0.166949815697373	-0.00486505776736313	0.07101307206029107	0.11852152342300389	-0.03224752576039869	0.08148320424072779
130	2.1666666666666665	0.3857275661655613	0.576053571447242	0.7330537133925842	0.34600658512305826	0.7947395046612914	1.1769372838143035	0.33563226622106157	1.0455745057097858	1.5978964089237913	0.3039967682727997	0.8437102954580875	1.6741613290115493	0.37123294737465456	0.8441450556684517	1.6679029027935253	0.32455601619457963	1.1510193860588407	1.6402742105833181	0.1817882869978359	0.5939356960878472	0.7299056004165546	0.1806570362089143	0.7991180966768292	1.182916616563681	0.1816612494308961	1.0272506402896695	1.5752276528826268	0.1530976308943533	0.8218855464321577	1.648539098100118	0.1092201506367372	0.893983559032622	1.6486842956651837	0.20049602484330312	1.1622435807124352	1.6438460162832975	0.2916467429660469	0.43015256144327774	0.23566661375599413	0.3139394724766046	0.3817511180923554	0.01899637455957246	0.30067199883535756	0.3148654744767795	0.15727856422701622	0.4358695703837379	0.45558909792441016	0.28157863356879237	0.45445335056940805	0.2016306234042283	0.3052087687972921	0.35509741483398927	0.007259639484441408	0.14826412714846002	0.29921371603447317	-0.020327853188594012	0.055490178783783234	0.3402666600066171	-0.04760251064077121	0.030405165649820123	0.3762288749291754	-0.08467200316324112	0.04698771911090011	0.16138028450208647	0.4507616579515082	0.2838359029832348	0.05946475151219147	0.23392165454292202	0.30606376890585707	0.12752981868632174	0.07059600437289769	0.1577888325787047	0.18805776751048342	-0.007968837436582605	0.10043160586103217	0.1618044177388968	-0.02281555129804617	0.0651793424976326	0.10703003644793302	-0.05305895076761425	0.07862090116084935
